<svg id="图层_1" data-name="图层 1" xmlns="http://www.w3.org/2000/svg" viewBox="0 0 57 56"><defs><style>.cls-1{fill:#fff;}</style></defs><title>2功能一编辑icon</title><path class="cls-1" d="M45.2,56H11.74A11,11,0,0,1,.82,45V11.24A11,11,0,0,1,11.73.24H28.47a2.2,2.2,0,0,1,0,4.4H11.73a6.58,6.58,0,0,0-6.54,6.6V45a6.58,6.58,0,0,0,6.54,6.6H45.21A6.58,6.58,0,0,0,51.75,45V28.1a2.19,2.19,0,1,1,4.37,0V45A11,11,0,0,1,45.21,56ZM47,5.24l2.05,2.08,2.07,2.07-10,10.12-12,12.08L24.58,32,25,27.46l12-12.1L47,5.24Zm0-5A2.92,2.92,0,0,0,45,1.1l-11,11.15L21.19,25.17a1.51,1.51,0,0,0-.42.89L20,35.2a1.52,1.52,0,0,0,.38,1.13,1.48,1.48,0,0,0,1.08.47h.13L30.61,36a1.42,1.42,0,0,0,.89-.43L44.24,22.71,55.3,11.56a2.93,2.93,0,0,0,0-4.15l-3.13-3.2-3.08-3.1A2.84,2.84,0,0,0,47,.24Zm0,0"/></svg>