<svg id="图层_1" data-name="图层 1" xmlns="http://www.w3.org/2000/svg" viewBox="0 0 52 44"><defs><style>.cls-1{fill:#606060;}</style></defs><title>2功能二icon</title><path class="cls-1" d="M.47,4.47A4.3,4.3,0,1,0,4.77.17a4.3,4.3,0,0,0-4.3,4.3Zm0,0"/><path class="cls-1" d="M.47,21.81a4.3,4.3,0,1,0,4.3-4.3,4.3,4.3,0,0,0-4.3,4.3Zm0,0"/><path class="cls-1" d="M.47,39.13a4.3,4.3,0,1,0,4.3-4.3,4.3,4.3,0,0,0-4.3,4.3Zm0,0"/><path class="cls-1" d="M17.25,7.69h31.3a3.23,3.23,0,1,0,0-6.45H17.25a3.23,3.23,0,0,0,0,6.45Z"/><path class="cls-1" d="M48.55,35.9H17.25a3.23,3.23,0,0,0,0,6.45h31.3a3.23,3.23,0,1,0,0-6.45Z"/><path class="cls-1" d="M17.07,25H43.91a3,3,0,0,0,3-3v-.35a3,3,0,0,0-3-3H17.07a3,3,0,0,0-3,3V22a3,3,0,0,0,3,3Z"/></svg>