<svg id="图层_1" data-name="图层 1" xmlns="http://www.w3.org/2000/svg" viewBox="0 0 57 59"><defs><style>.cls-1{fill:#fff;}</style></defs><title>3-功能  选择</title><path class="cls-1" d="M44.94,58.22H12.19A11.56,11.56,0,0,1,.64,46.67V12.55A11.56,11.56,0,0,1,12.19,1h31a2.27,2.27,0,0,1,0,4.54h-31a7,7,0,0,0-7,7V46.67a7,7,0,0,0,7,7H44.94a7,7,0,0,0,7-7V15.75a2.27,2.27,0,0,1,4.54,0V46.67A11.56,11.56,0,0,1,44.94,58.22Z"/><path class="cls-1" d="M42.31,19.29H14.82a2.27,2.27,0,0,1,0-4.54H42.31a2.27,2.27,0,1,1,0,4.54Z"/><path class="cls-1" d="M42.31,30.28H14.82a2.27,2.27,0,0,1,0-4.54H42.31a2.27,2.27,0,1,1,0,4.54Z"/><path class="cls-1" d="M29,40.82H14.82a2.27,2.27,0,0,1,0-4.54H29a2.27,2.27,0,0,1,0,4.54Z"/></svg>