<svg id="图层_1" data-name="图层 1" xmlns="http://www.w3.org/2000/svg" xmlns:xlink="http://www.w3.org/1999/xlink" viewBox="0 0 52 43"><defs><style>.cls-1{fill:none;}.cls-2{opacity:0.65;}.cls-3{clip-path:url(#clip-path);}.cls-4{fill:#606060;}</style><clipPath id="clip-path"><rect class="cls-1" x="-1627" y="-552" width="1440" height="545"/></clipPath></defs><title>3-功能1</title><path class="cls-4" d="M48.32,6.82H3.66a3.33,3.33,0,0,1,0-6.65H48.32a3.33,3.33,0,0,1,0,6.65ZM3.66,18.7a3.33,3.33,0,0,1,0-6.65H48.32a3.33,3.33,0,0,1,0,6.65Zm0,5.23H48.32a3.33,3.33,0,0,1,0,6.65H3.66a3.33,3.33,0,0,1,0-6.65Zm0,11.88H31.21a3.33,3.33,0,1,1,0,6.65H3.66a3.33,3.33,0,0,1,0-6.65Zm0,0"/></svg>