<svg id="图层_1" data-name="图层 1" xmlns="http://www.w3.org/2000/svg" viewBox="0 0 120 129"><defs><style>.cls-1{fill:#ff5b40;}</style></defs><title>3-图标</title><path class="cls-1" d="M88.75,128.47H23.25A22.78,22.78,0,0,1,.5,105.72V31.23A22.78,22.78,0,0,1,23.25,8.47H74a2.5,2.5,0,0,1,0,5H23.25A17.78,17.78,0,0,0,5.5,31.23v74.49a17.78,17.78,0,0,0,17.75,17.75H88.75a17.78,17.78,0,0,0,17.75-17.75V38.21a2.5,2.5,0,0,1,5,0v67.51A22.78,22.78,0,0,1,88.75,128.47Z"/><path class="cls-1" d="M55,43.47H23a2.5,2.5,0,0,1,0-5H55a2.5,2.5,0,0,1,0,5Z"/><path class="cls-1" d="M83,67.47H23a2.5,2.5,0,0,1,0-5H83a2.5,2.5,0,0,1,0,5Z"/><path class="cls-1" d="M74.79,47.69A2.5,2.5,0,0,1,73,43.42L115.45,1A2.5,2.5,0,0,1,119,4.53L76.55,47A2.49,2.49,0,0,1,74.79,47.69Z"/></svg>