<svg id="图层_1" data-name="图层 1" xmlns="http://www.w3.org/2000/svg" viewBox="0 0 82 85"><defs><style>.cls-1{fill:#fff;}</style></defs><title>5编辑-AI LOGO图标</title><path class="cls-1" d="M81.18,81.43l-40-.05-2.6,2.86,42.64.06a.83.83,0,0,0,.83-.83V82.26A.83.83,0,0,0,81.18,81.43Z"/><path class="cls-1" d="M81.18,74.75l-33.26,0-2.29,2.86,35.55,0a.83.83,0,0,0,.83-.83V75.58A.83.83,0,0,0,81.18,74.75Z"/><rect class="cls-1" x="60.14" y="8.67" width="12.94" height="29.79" rx="1.65" ry="1.65" transform="translate(4.53 57.29) rotate(-48)"/><rect class="cls-1" x="42.05" y="3.34" width="12.94" height="7.85" rx="1.65" ry="1.65" transform="translate(10.65 38.45) rotate(-47.99)"/><path class="cls-1" d="M3,84.3H31.94L43.94,71a1.24,1.24,0,0,0-.09-1.75l-2.56-2.31a1.24,1.24,0,0,0-1.75.09L29.47,78.17H8.53L6.35,57.34,16.4,46.18a1.24,1.24,0,0,0-.09-1.75l-2.56-2.31a1.24,1.24,0,0,0-1.75.09L0,55.53Z"/><path class="cls-1" d="M22.63,78.39A14.78,14.78,0,0,0,6.85,64.17L8.33,78.39Z"/><path class="cls-1" d="M63.81,48.91l5-5.61A1.65,1.65,0,0,0,68.74,41L39.26,14.42a1.65,1.65,0,0,0-2.34.12L17.23,36.4a1.65,1.65,0,0,0,.12,2.34L46.83,65.29a1.65,1.65,0,0,0,2.34-.12l5.13-5.7a1.65,1.65,0,0,0-.12-2.34l-4.44-4a1.65,1.65,0,0,1-.12-2.34l5.09-5.64A1.65,1.65,0,0,1,57,45l4.45,4A1.65,1.65,0,0,0,63.81,48.91ZM42.67,34.53h0m-5,5.59h0m3.15,5L31.72,37a1.65,1.65,0,0,1-.12-2.34L36.69,29A1.65,1.65,0,0,1,39,28.89L48.08,37a1.65,1.65,0,0,1,.12,2.34L43.11,45A1.65,1.65,0,0,1,40.77,45.15Z"/></svg>