<svg id="图层_1" data-name="图层 1" xmlns="http://www.w3.org/2000/svg" viewBox="0 0 52 52"><defs><style>.cls-1{fill:#ff5b40;}</style></defs><title>5编辑-编辑</title><path class="cls-1" d="M40.36,51.5H11A10.85,10.85,0,0,1,.13,40.66V10.87A10.85,10.85,0,0,1,11,0H31.22a2.74,2.74,0,0,1,0,5.48H11a5.37,5.37,0,0,0-5.36,5.36V40.66A5.37,5.37,0,0,0,11,46H40.36a5.37,5.37,0,0,0,5.36-5.36v-19a2.74,2.74,0,0,1,5.48,0v19A10.85,10.85,0,0,1,40.36,51.5Z"/><path class="cls-1" d="M19.67,34.3a2.74,2.74,0,0,1-2.72-3l.8-7.2a2.74,2.74,0,0,1,.78-1.63L40.13.84A2.74,2.74,0,0,1,43.94.78l7.2,6.8a2.74,2.74,0,0,1,0,3.94l-21.6,21.2a2.74,2.74,0,0,1-1.64.77l-8,.8Zm3.41-8.68-.32,2.88,3.67-.37L45.32,9.61l-3.2-3Z"/></svg>