<svg id="图层_1" data-name="图层 1" xmlns="http://www.w3.org/2000/svg" viewBox="0 0 58 59"><defs><style>.cls-1{fill:#ff5b40;}</style></defs><title>6生成预览页分享icon</title><path class="cls-1" d="M29.07,58.2a28.84,28.84,0,0,1,0-57.67,2.5,2.5,0,0,1,0,5A23.84,23.84,0,1,0,52.91,29.37a2.5,2.5,0,0,1,5,0A28.87,28.87,0,0,1,29.07,58.2Z"/><path class="cls-1" d="M29.89,37a2.5,2.5,0,0,1-2.5-2.5V25.31A12.41,12.41,0,0,1,39.78,12.92H47a2.5,2.5,0,0,1,0,5h-7.2a7.39,7.39,0,0,0-7.39,7.39v9.15A2.5,2.5,0,0,1,29.89,37Z"/><path class="cls-1" d="M43.59,23.63a2.5,2.5,0,0,1-1.77-4.26l4.09-4.1L42,11.37a2.5,2.5,0,0,1,3.54-3.53l4.79,4.79a3.73,3.73,0,0,1,0,5.28l-5,5A2.49,2.49,0,0,1,43.59,23.63Zm3.22-7.46h0Z"/></svg>