<svg id="图层_1" data-name="图层 1" xmlns="http://www.w3.org/2000/svg" viewBox="0 0 375 86"><defs><style>.cls-1{fill:#ff5b40;}</style></defs><title>6生成预览页橙logo</title><path class="cls-1" d="M82.18,81.43l-40.05-.05-2.6,2.86,42.64.05a.82.82,0,0,0,.83-.82V82.26A.83.83,0,0,0,82.18,81.43Z"/><path class="cls-1" d="M82.18,74.75l-33.25,0-2.3,2.86,35.55,0a.83.83,0,0,0,.83-.83v-1.2A.83.83,0,0,0,82.18,74.75Z"/><rect class="cls-1" x="61.14" y="8.67" width="12.94" height="29.79" rx="1.65" transform="translate(4.86 58.03) rotate(-48)"/><rect class="cls-1" x="43.05" y="3.34" width="12.94" height="7.85" rx="1.65" transform="translate(10.98 39.2) rotate(-47.99)"/><path class="cls-1" d="M4,84.3H32.94L44.94,71a1.24,1.24,0,0,0-.09-1.75l-2.57-2.31a1.24,1.24,0,0,0-1.75.09L30.47,78.17H9.53L7.35,57.34l10-11.16a1.25,1.25,0,0,0-.09-1.76l-2.56-2.31a1.25,1.25,0,0,0-1.75.1L1,55.53Z"/><path class="cls-1" d="M23.63,78.39A14.79,14.79,0,0,0,7.85,64.17L9.33,78.39Z"/><path class="cls-1" d="M64.81,48.91l5-5.6A1.65,1.65,0,0,0,69.74,41L40.26,14.42a1.66,1.66,0,0,0-2.34.12L18.23,36.4a1.65,1.65,0,0,0,.12,2.34L47.83,65.29a1.66,1.66,0,0,0,2.34-.12l5.13-5.7a1.65,1.65,0,0,0-.13-2.33l-4.44-4a1.66,1.66,0,0,1-.12-2.34l5.09-5.64A1.65,1.65,0,0,1,58,45l4.45,4A1.65,1.65,0,0,0,64.81,48.91ZM43.67,34.53h0m-5,5.59h0m3.14,5L32.72,37a1.66,1.66,0,0,1-.12-2.34L37.69,29A1.65,1.65,0,0,1,40,28.89l9,8.16a1.65,1.65,0,0,1,.12,2.33L44.11,45A1.67,1.67,0,0,1,41.77,45.15Z"/><path class="cls-1" d="M203.29,20.73h38.82a69.89,69.89,0,0,0-9.68-15.51l3-1.17a82.06,82.06,0,0,1,9.86,16.68h34.51v3.05H265.33q-6.65,22.94-20.71,37.73Q259.41,74.79,282,83.21l-1.61,2.6q-23-8.7-37.83-22.14Q226.78,79,202.94,86l-1.62-2.69q24-6.72,39.09-21.52a84,84,0,0,1-23-38H203.29Zm17.22,3.05a80.62,80.62,0,0,0,22,35.85q13.89-14.7,19.72-35.85Z"/><path class="cls-1" d="M297.69,58.65h36.66v-8h3v8h36.39v2.86H341.16Q351.3,73,374.51,79.44L373.26,82q-25.29-7.8-35-20.53h-.9V85.63h-3V61.51h-.89q-8.34,12.38-34.52,21.25L297.24,80q25.36-8,33.44-18.47h-33ZM333,19.2l-5.65,8h43.75v2.69h-15.6a46.37,46.37,0,0,1-12.64,12.46q14.34,3.86,26.71,8.25L367.79,53q-13.19-4.76-28.24-8.79-13.89,6.91-37.74,7.17l-1.7-2.5q21.87,0,35.5-5.74-11.21-3-20.62-4.66,4.67-5.74,6.9-8.61H300.47V27.18h23.39q4.31-5.91,6.28-8.87Zm38-6.9V23.51h-3V15.08H303.42V23.6h-3V12.3h34.87a54.2,54.2,0,0,0-4.39-7.53l3-.54a42.54,42.54,0,0,1,4.31,8.07ZM352.28,29.87H325.39q-3.76,4.75-5.83,7.08,10,1.89,19.63,4.39A41.14,41.14,0,0,0,352.28,29.87Z"/><path class="cls-1" d="M134.38,17.82h4.3l26,64h-3.86l-8.07-20.26H120.39l-8.15,20.26h-3.95ZM121.65,58.34H151.5L136.71,21.59h-.27Z"/><rect class="cls-1" x="176.96" y="18.3" width="3.5" height="4.84"/><rect class="cls-1" x="176.96" y="30.74" width="3.5" height="50.61"/></svg>