<svg id="图层_1" data-name="图层 1" xmlns="http://www.w3.org/2000/svg" viewBox="0 0 61 63"><defs><style>.cls-1{fill:#ff5b40;}</style></defs><title>6生成预览页首页icon</title><path class="cls-1" d="M47.31,63H41.54a5.3,5.3,0,0,1-5.29-5.3V51a1.47,1.47,0,0,0-1.47-1.47h-7.9A1.47,1.47,0,0,0,25.41,51v5.51A6.48,6.48,0,0,1,19,63h-4a6.49,6.49,0,0,1-6.48-6.47V37.89A1.47,1.47,0,0,0,7,36.42h-.3a6.47,6.47,0,0,1-4.62-11l20.7-21A11.17,11.17,0,0,1,30.83,1H31a11.25,11.25,0,0,1,8.13,3.57l2.23,2.37a2.5,2.5,0,1,1-3.65,3.43L35.44,8a6.29,6.29,0,0,0-4.53-2h-.08a6.27,6.27,0,0,0-4.5,1.89L5.64,28.92a1.47,1.47,0,0,0,1.05,2.5H7a6.47,6.47,0,0,1,6.47,6.47V56.54A1.47,1.47,0,0,0,14.94,58h4a1.46,1.46,0,0,0,1.46-1.47V51a6.48,6.48,0,0,1,6.47-6.47h7.9A6.47,6.47,0,0,1,41.25,51v6.68a.3.3,0,0,0,.29.3h5.77a.3.3,0,0,0,.29-.3V37.89a6.47,6.47,0,0,1,6.47-6.47,1.47,1.47,0,0,0,1.07-2.48L46.46,19.7a2.5,2.5,0,0,1,3.65-3.43l8.68,9.25a6.47,6.47,0,0,1-4.72,10.9,1.47,1.47,0,0,0-1.47,1.47V57.71A5.3,5.3,0,0,1,47.31,63Z"/></svg>