<svg id="图层_1" data-name="图层 1" xmlns="http://www.w3.org/2000/svg" viewBox="0 0 218 218"><title>ui界面成稿</title><circle cx="109.24" cy="110" r="105.45" style="fill:#fff;stroke:#ff5b40;stroke-miterlimit:10;stroke-width:5px"/><circle cx="109.38" cy="93.48" r="25.35" style="fill:none;stroke:#ff5b40;stroke-linecap:round;stroke-linejoin:round;stroke-width:5px"/><path d="M157.07,93.48a47.68,47.68,0,1,1-5-21.2A47.7,47.7,0,0,1,157.07,93.48Z" style="fill:none;stroke:#ff5b40;stroke-linecap:round;stroke-linejoin:round;stroke-width:5px"/><path d="M91.76,139.46,71.44,162.79a4.09,4.09,0,0,1-6.75-.82L60,152.76a4.06,4.06,0,0,0-2.35-2l-9.79-3.28a4.09,4.09,0,0,1-1.8-6.56l19.71-23.1" style="fill:none;stroke:#ff5b40;stroke-linecap:round;stroke-linejoin:round;stroke-width:5px"/><path d="M126.72,139.46,147,162.79a4.09,4.09,0,0,0,6.75-.82l4.67-9.21a4.06,4.06,0,0,1,2.35-2l9.79-3.28a4.09,4.09,0,0,0,1.8-6.56l-19.71-23.1" style="fill:none;stroke:#ff5b40;stroke-linecap:round;stroke-linejoin:round;stroke-width:5px"/></svg>