<svg id="图层_1" data-name="图层 1" xmlns="http://www.w3.org/2000/svg" viewBox="0 0 725 167"><defs><style>.cls-1{fill:#ff5b40;}</style></defs><title>首页橙logo</title><path class="cls-1" d="M157.9,157.17l-77.71-.1-5,5.55,82.75.11a1.61,1.61,0,0,0,1.61-1.6v-2.35A1.61,1.61,0,0,0,157.9,157.17Z"/><path class="cls-1" d="M157.92,144.2l-64.55-.08-4.46,5.54,69,.09a1.6,1.6,0,0,0,1.61-1.6v-2.34A1.6,1.6,0,0,0,157.92,144.2Z"/><rect class="cls-1" x="117.07" y="15.94" width="25.12" height="57.81" rx="3.21" transform="translate(9.56 111.16) rotate(-48)"/><rect class="cls-1" x="81.96" y="5.6" width="25.12" height="15.24" rx="3.21" transform="translate(21.44 74.61) rotate(-47.99)"/><path class="cls-1" d="M6.2,162.73H62.34l23.29-25.86a2.41,2.41,0,0,0-.18-3.4l-5-4.48a2.41,2.41,0,0,0-3.4.18L57.56,150.84H16.9l-4.23-40.43L32.19,88.74a2.41,2.41,0,0,0-.18-3.4l-5-4.48a2.41,2.41,0,0,0-3.4.18L.35,106.89Z"/><path class="cls-1" d="M44.26,151.26a28.7,28.7,0,0,0-30.63-27.59l2.89,27.59Z"/><path class="cls-1" d="M124.21,94.06,134,83.18a3.22,3.22,0,0,0-.24-4.54L76.55,27.1a3.22,3.22,0,0,0-4.54.24L33.78,69.78A3.2,3.2,0,0,0,34,74.31l57.22,51.54a3.21,3.21,0,0,0,4.53-.24l10-11.06a3.2,3.2,0,0,0-.24-4.53l-8.62-7.76a3.21,3.21,0,0,1-.23-4.54l9.87-11a3.21,3.21,0,0,1,4.53-.24l8.63,7.77A3.22,3.22,0,0,0,124.21,94.06Zm-41-27.92h0M73.38,77h0m6.11,9.76L61.92,70.91a3.22,3.22,0,0,1-.24-4.54l9.88-11a3.21,3.21,0,0,1,4.54-.23L93.66,71a3.21,3.21,0,0,1,.24,4.53L84,86.51A3.21,3.21,0,0,1,79.49,86.75Z"/><path class="cls-1" d="M393,39.35h75.34a135.76,135.76,0,0,0-18.79-30.1L455.44,7a158.52,158.52,0,0,1,19.14,32.36h67v5.92H513.38Q500.5,89.8,473.19,118.51q28.71,25.76,72.55,42.11l-3.13,5q-44.72-16.87-73.42-43Q438.56,152.44,392.28,166l-3.13-5.22q46.64-13,75.86-41.75A163.31,163.31,0,0,1,420.3,45.27H393Zm33.41,5.92A156.57,156.57,0,0,0,469,114.86q27-28.53,38.28-69.59Z"/><path class="cls-1" d="M576.19,113h71.16V97.46h5.91V113H723.9v5.56H660.57q19.66,22.28,64.72,34.8l-2.43,5.05Q673.8,143.23,655,118.51h-1.74v46.81h-5.91V118.51h-1.74q-16.18,24-67,41.24l-3.3-5.4q49.23-15.48,64.89-35.84h-64Zm68.55-76.56-11,15.49h84.9V57.1H688.41a90,90,0,0,1-24.53,24.18q27.82,7.48,51.85,16L712.25,102q-25.59-9.21-54.81-17-27,13.41-73.25,13.92L580.89,94q42.45,0,68.89-11.13-21.75-5.75-40-9,9-11.13,13.39-16.7H581.58V51.88H627q8.35-11.49,12.18-17.23ZM718.51,23V44.74h-5.92V28.39H587.32V44.92h-5.91V23h67.68a104.43,104.43,0,0,0-8.53-14.61l5.92-1A83.15,83.15,0,0,1,654.83,23ZM682.15,57.1H630q-7.31,9.23-11.31,13.74,19.49,3.66,38.1,8.53Q672.93,70,682.15,57.1Z"/><path class="cls-1" d="M259.22,33.71h8.35L318,157.94h-7.49l-15.65-39.32H232.08l-15.84,39.32h-7.65Zm-24.71,78.64h57.94L263.74,41h-.52Z"/><rect class="cls-1" x="341.86" y="34.63" width="6.79" height="9.39"/><rect class="cls-1" x="341.86" y="58.79" width="6.79" height="98.22"/></svg>